# xmcd
#
# Track frame offsets:
#	150
#	26792
#	49085
#	83515
#	108324
#	136549
#	153341
#	205312
#	246831
#
# Disc length: 3959 seconds
#
# Revision: 0
# Processed by: cddbd v1.5.2PL0 Copyright (c) Steve Scherf et al.
# Submitted via: audiograbber 1.83.01
#
DISCID=6a0f7509
DTITLE=Grateful Dead - 93-09-13 The Spectrum, Philadelphia PA
DYEAR=1900
DGENRE=
TTITLE0=Hell In A Bucket
TTITLE1=Jack-A-Roe
TTITLE2=The Same Thing
TTITLE3=Stagger Lee
TTITLE4=Black Throated Wind
TTITLE5=Dire Wolf
TTITLE6=Let It Grow
TTITLE7=Scarlet Begonias
TTITLE8=Fire On The Mountain
EXTD=
EXTT0=
EXTT1=
EXTT2=
EXTT3=
EXTT4=
EXTT5=
EXTT6=
EXTT7=
EXTT8=
PLAYORDER=
